<?xml version="1.0" encoding="UTF-8"?>
<svg viewBox="0 0 512 512" xmlns="http://www.w3.org/2000/svg">
<g>
<title>background</title>
<rect x="-1" y="-1" width="582" height="402" fill="none"/>
</g>
<g>
<title>Layer 1</title>
<g transform="rotate(180 256 256.04)" fill="#6A6E7C">
<path d="m243.2 266.5c-2.8 0-5.5-1.1-7.6-3.2-4-4.2-3.9-10.9 0.3-14.9l253.9-245.4c4.2-4 10.9-3.9 14.9 0.3s3.9 10.9-0.3 14.9l-254 245.5c-2 1.9-4.6 2.8-7.2 2.8z"/>
<path d="m497.2 512c-2.6 0-5.3-1-7.3-3l-254-245.5c-4.2-4-4.3-10.7-0.3-14.9s10.7-4.3 14.9-0.3l254 245.5c4.2 4 4.3 10.7 0.3 14.9-2.1 2.2-4.9 3.3-7.6 3.3z"/>
<path d="m14.8 266.5c-2.8 0-5.5-1.1-7.6-3.2-4-4.2-3.9-10.9 0.3-14.9l254-245.4c4.2-4 10.9-3.9 14.9 0.3s3.9 10.9-0.3 14.9l-254 245.5c-2 1.9-4.6 2.8-7.3 2.8z"/>
<path d="m268.8 512c-2.6 0-5.3-1-7.3-3l-254-245.4c-4.2-4-4.3-10.7-0.3-14.9s10.7-4.3 14.9-0.3l254 245.5c4.2 4 4.3 10.7 0.3 14.9-2 2.1-4.8 3.2-7.6 3.2z"/>
</g>
</g>
</svg>
